# xmcd CD database file
#
# Track frame offsets:
#	150
#	26646
#	44840
#	77239
#	112657
#	136490
#	157710
#	180930
#	212267
#	233056
#	238066
#	258282
#	276263
#	294951
#	322698
#
# Disc length: 4427 seconds
#
# Revision: 4
# Processed by: cddbd v1.5.2PL0 Copyright (c) Steve Scherf et al.
# Submitted via: CDex 1.51
#
DISCID=bc11490f
DTITLE=Muddy Waters - Master Of The Blues
DYEAR=2001
DGENRE=Blues
TTITLE0=They Call Me Muddy Waters
TTITLE1=Got My Mojo Working
TTITLE2=Last Nite
TTITLE3=Kansas City
TTITLE4=Nine Below Zero
TTITLE5=Harry's Groove
TTITLE6=Mannish Boy
TTITLE7=Long Distance Call
TTITLE8=Lonesome In My Bedroom
TTITLE9=Hold It
TTITLE10=Baby Please Don't Go
TTITLE11=Everything Gonna Be Alright
TTITLE12=Corrine Corrina
TTITLE13=Caldonia
TTITLE14=Instrumental (with Spoken Intro By Muddy Waters)
EXTD=YEAR: 2001
EXTT0=
EXTT1=
EXTT2=
EXTT3=
EXTT4=
EXTT5=
EXTT6=
EXTT7=
EXTT8=
EXTT9=
EXTT10=
EXTT11=
EXTT12=
EXTT13=
EXTT14=
PLAYORDER=
